<svg xmlns="http://www.w3.org/2000/svg" xmlns:xlink="http://www.w3.org/1999/xlink" height="32" viewBox="0 0 32 32" width="32"><title>Template icons dark</title><defs><linearGradient id="e"><stop offset="0" stop-color="#aea6b6"/><stop offset="1" stop-color="#e4e4e4"/></linearGradient><linearGradient id="d"><stop offset="0" stop-color="#645665"/><stop offset="1" stop-color="#05070e" stop-opacity=".988"/></linearGradient><linearGradient id="c"><stop offset="0" stop-color="#2d3840"/><stop offset="1" stop-color="#5f5777"/></linearGradient><linearGradient id="b"><stop offset="0" stop-color="#eaeaea"/><stop offset="1" stop-color="silver"/></linearGradient><linearGradient id="a"><stop offset="0" stop-color="#50b4ce"/><stop offset="1" stop-color="#df2fb9" stop-opacity=".974"/></linearGradient><linearGradient xlink:href="#b" id="h" x1="151" y1="147" x2="151" y2="171.95" gradientUnits="userSpaceOnUse" gradientTransform="translate(-59.756 -59.76) scale(.28646)"/><linearGradient xlink:href="#c" id="g" x1="119.039" y1="133.562" x2="178.802" y2="193.325" gradientUnits="userSpaceOnUse" gradientTransform="matrix(0 -.3449 .3449 0 -71.174 38.525)"/><linearGradient xlink:href="#e" id="f" x1="151.033" y1="198.284" x2="151.033" y2="118.162" gradientUnits="userSpaceOnUse" gradientTransform="matrix(.36025 0 0 .36025 -73.64 -73.44)"/></defs><g color="#000" transform="translate(32 32)"><rect style="isolation:auto;mix-blend-mode:normal;marker:none" width="32" height="32" x="-32" y="-32" ry="3.556" display="block" overflow="visible" fill="#000808" fill-opacity=".136" stroke="url(#linearGradient1010)" stroke-width=".452"/><rect ry="3.333" y="-30.8" x="-31" height="30" width="30" style="isolation:auto;mix-blend-mode:normal;marker:none" display="block" overflow="visible" fill="url(#f)" stroke="url(#linearGradient1010)" stroke-width=".423"/><path d="M-11.304-29.374L0-9.794c-3 5.196-2.365 4.053-4.72 8.13h-22.62c-2.253-3.903-2.04-3.495-4.66-8.032l11.387-19.724c3.566 0 5.263.046 9.309.046z" style="isolation:auto;mix-blend-mode:normal;marker:none" display="block" overflow="visible" fill="url(#g)" stroke-width=".175" stroke-opacity="0"/><path style="isolation:auto;mix-blend-mode:normal;marker:none" d="M-5.995-14.555A10.174 10.174 0 0 1-16.17-4.38a10.174 10.174 0 0 1-10.174-10.175A10.174 10.174 0 0 1-16.17-24.729 10.174 10.174 0 0 1-5.995-14.555z" display="block" overflow="visible" fill="#000808" fill-opacity=".476" stroke-width=".38"/><path style="isolation:auto;mix-blend-mode:normal;marker:none" d="M-9.393-14.173l-5.388 3.111-5.389 3.111V-20.394l5.389 3.11z" display="block" overflow="visible" fill="url(#h)" stroke-width=".143" stroke-opacity="0"/></g></svg>