<svg xmlns="http://www.w3.org/2000/svg" xmlns:xlink="http://www.w3.org/1999/xlink" height="48" viewBox="0 0 48 48" width="48"><title>Template icons dark</title><defs><linearGradient id="e"><stop offset="0" stop-color="#aea6b6"/><stop offset="1" stop-color="#e4e4e4"/></linearGradient><linearGradient id="d"><stop offset="0" stop-color="#645665"/><stop offset="1" stop-color="#05070e" stop-opacity=".988"/></linearGradient><linearGradient id="c"><stop offset="0" stop-color="#2d3840"/><stop offset="1" stop-color="#5f5777"/></linearGradient><linearGradient id="b"><stop offset="0" stop-color="#eaeaea"/><stop offset="1" stop-color="silver"/></linearGradient><linearGradient id="a"><stop offset="0" stop-color="#50b4ce"/><stop offset="1" stop-color="#df2fb9" stop-opacity=".974"/></linearGradient><linearGradient xlink:href="#e" id="f" x1="151.033" y1="198.284" x2="151.033" y2="118.162" gradientUnits="userSpaceOnUse" gradientTransform="matrix(.52846 0 0 .52818 -60.52 -60.421)"/><linearGradient xlink:href="#a" id="g" x1="120.752" y1="131.244" x2="191.98" y2="189.032" gradientUnits="userSpaceOnUse" gradientTransform="matrix(0 -.48498 .48498 0 -53.54 102.157)"/><linearGradient xlink:href="#c" id="h" x1="119.039" y1="133.562" x2="178.802" y2="193.325" gradientUnits="userSpaceOnUse" gradientTransform="rotate(-90 24.285 78.683) scale(.49034)"/><linearGradient xlink:href="#d" id="i" gradientUnits="userSpaceOnUse" gradientTransform="matrix(0 -.55423 .55423 0 -48.394 107.44)" x1="131.889" y1="152.575" x2="177.103" y2="163.009"/><linearGradient xlink:href="#b" id="j" x1="151" y1="147" x2="151" y2="171.95" gradientUnits="userSpaceOnUse" gradientTransform="matrix(.28837 0 0 .28837 -19.73 -17.723)"/></defs><g color="#000"><rect style="isolation:auto;mix-blend-mode:normal;marker:none" width="44.996" height="44.987" x="1.518" y="1.584" ry="4.999" display="block" overflow="visible" fill="#000808" fill-opacity=".136" stroke="url(#linearGradient1010)" stroke-width=".635"/><rect ry="4.887" y="2.096" x="2.03" height="43.985" width="44.008" style="isolation:auto;mix-blend-mode:normal;marker:none" display="block" overflow="visible" fill="url(#f)" stroke="url(#linearGradient1010)" stroke-width=".621"/><rect style="isolation:auto;mix-blend-mode:normal;marker:none" width="8" height="1" x="20.022" y="3.088" ry=".5" display="block" overflow="visible" fill="#bbc0c5" fill-opacity=".982" stroke="url(#linearGradient1010)" stroke-width=".514"/><path style="isolation:auto;mix-blend-mode:normal;marker:none" d="M30.876 5.913l16.447 28.486c-4.365 7.56-3.441 5.898-6.866 11.83H7.546c-3.28-5.68-2.97-5.085-6.78-11.687L17.332 5.846c5.188 0 7.657.067 13.543.067z" display="block" overflow="visible" fill="url(#g)" stroke-width=".255" stroke-opacity="0"/><path d="M30.72 6.436L46.79 34.272c-4.266 7.388-3.363 5.763-6.71 11.56H7.923c-3.204-5.55-2.901-4.97-6.626-11.42L17.486 6.37c5.07 0 7.482.065 13.234.065z" style="isolation:auto;mix-blend-mode:normal;marker:none" display="block" overflow="visible" fill="url(#h)" stroke-width=".249" stroke-opacity="0"/><path style="isolation:auto;mix-blend-mode:normal;marker:none" d="M37.677 28.978a13.88 13.88 0 0 1-13.88 13.88 13.88 13.88 0 0 1-13.88-13.88 13.88 13.88 0 0 1 13.88-13.88 13.88 13.88 0 0 1 13.88 13.88z" display="block" overflow="visible" fill="#000808" fill-opacity=".33" stroke="url(#i)" stroke-width=".518"/><path d="M30.97 28.78l-5.425 3.131-5.424 3.132V22.516l5.424 3.132z" style="isolation:auto;mix-blend-mode:normal;marker:none" display="block" overflow="visible" fill-opacity=".288" stroke-width=".144" stroke-opacity="0"/><path style="isolation:auto;mix-blend-mode:normal;marker:none" d="M30.97 28.169L25.545 31.3l-5.424 3.131V21.905l5.424 3.132z" display="block" overflow="visible" fill="url(#j)" stroke-width=".144" stroke-opacity="0"/><path style="isolation:auto;mix-blend-mode:normal;marker:none" d="M20.121 21.905V34.432l5.424-3.131 5.425-3.132-.355-.205-4.781 2.76-5.425 3.131V22.072z" display="block" overflow="visible" fill="#feeaeb" stroke-width=".144" stroke-opacity="0"/><g transform="rotate(30 74.086 -130.898) scale(.5)" fill="#000808" fill-opacity=".136" stroke="url(#linearGradient1010)"><circle r="4.866" cy="46.766" cx="174.236" style="isolation:auto;mix-blend-mode:normal;marker:none" display="block" overflow="visible" stroke-width="1.016"/><circle style="isolation:auto;mix-blend-mode:normal;marker:none" cx="174.236" cy="55.601" r="2.748" display="block" overflow="visible" stroke-width=".574"/><circle r="2" cy="62.577" cx="174.236" style="isolation:auto;mix-blend-mode:normal;marker:none" display="block" overflow="visible" stroke-width=".418"/><circle r="2.748" cy="35.814" cx="174.968" style="isolation:auto;mix-blend-mode:normal;marker:none" display="block" overflow="visible" stroke-width=".574"/></g></g></svg>