<svg xmlns="http://www.w3.org/2000/svg" xmlns:xlink="http://www.w3.org/1999/xlink" height="64" viewBox="0 0 64 64" width="64"><title>Template icons dark</title><defs><linearGradient id="e"><stop offset="0" stop-color="#aea6b6"/><stop offset="1" stop-color="#e4e4e4"/></linearGradient><linearGradient id="d"><stop offset="0" stop-color="#645665"/><stop offset="1" stop-color="#05070e" stop-opacity=".988"/></linearGradient><linearGradient id="c"><stop offset="0" stop-color="#2d3840"/><stop offset="1" stop-color="#5f5777"/></linearGradient><linearGradient id="b"><stop offset="0" stop-color="#eaeaea"/><stop offset="1" stop-color="silver"/></linearGradient><linearGradient id="a"><stop offset="0" stop-color="#50b4ce"/><stop offset="1" stop-color="#df2fb9" stop-opacity=".974"/></linearGradient><linearGradient xlink:href="#e" id="f" x1="151.033" y1="198.284" x2="151.033" y2="118.162" gradientUnits="userSpaceOnUse" gradientTransform="matrix(.70461 0 0 .70424 -32.752 -32.62)"/><linearGradient xlink:href="#a" id="g" x1="120.752" y1="131.244" x2="191.98" y2="189.032" gradientUnits="userSpaceOnUse" gradientTransform="rotate(-90 80.352 103.798) scale(.64663)"/><linearGradient xlink:href="#c" id="h" x1="119.039" y1="133.562" x2="178.802" y2="193.325" gradientUnits="userSpaceOnUse" gradientTransform="matrix(0 -.65379 .65379 0 -24.59 185.232)"/><linearGradient xlink:href="#d" id="i" gradientUnits="userSpaceOnUse" gradientTransform="matrix(0 -.73897 .73897 0 -16.584 191.194)" x1="131.889" y1="152.575" x2="177.103" y2="163.009"/><linearGradient xlink:href="#b" id="j" x1="151" y1="147" x2="151" y2="171.95" gradientUnits="userSpaceOnUse" gradientTransform="matrix(.3845 0 0 .3845 21.635 24.31)"/></defs><g color="#000" transform="translate(-48 -48)"><rect style="isolation:auto;mix-blend-mode:normal;marker:none" width="59.995" height="59.982" x="49.965" y="50.053" ry="6.665" display="block" overflow="visible" fill="#000808" fill-opacity=".136" stroke="url(#linearGradient1010)" stroke-width=".847"/><rect ry="6.516" y="50.736" x="50.647" height="58.646" width="58.677" style="isolation:auto;mix-blend-mode:normal;marker:none" display="block" overflow="visible" fill="url(#f)" stroke="url(#linearGradient1010)" stroke-width=".828"/><rect style="isolation:auto;mix-blend-mode:normal;marker:none" width="10.667" height="1.333" x="74.637" y="52.059" ry=".667" display="block" overflow="visible" fill="#bbc0c5" fill-opacity=".982" stroke="url(#linearGradient1010)" stroke-width=".685"/><path d="M89.392 54.878L112 94.036c-6 10.394-4.73 8.108-9.439 16.262h-45.24c-4.508-7.807-4.082-6.99-9.321-16.065l22.774-39.446c7.132 0 10.526.091 18.618.091z" style="isolation:auto;mix-blend-mode:normal;marker:none" display="block" overflow="visible" fill="#000808" fill-opacity=".147" stroke-width=".351" stroke-opacity="0"/><path style="isolation:auto;mix-blend-mode:normal;marker:none" d="M89.109 55.825l21.928 37.981c-5.82 10.082-4.588 7.864-9.154 15.774H58.002c-4.373-7.573-3.96-6.78-9.041-15.583l22.09-38.261c6.917 0 10.21.089 18.058.089z" display="block" overflow="visible" fill="url(#g)" stroke-width=".34" stroke-opacity="0"/><path d="M88.9 56.523l21.428 37.114c-5.687 9.851-4.483 7.684-8.946 15.413H58.503c-4.272-7.4-3.868-6.625-8.834-15.227l21.586-37.387c6.76 0 9.976.087 17.645.087z" style="isolation:auto;mix-blend-mode:normal;marker:none" display="block" overflow="visible" fill="url(#h)" stroke-width=".332" stroke-opacity="0"/><path style="isolation:auto;mix-blend-mode:normal;marker:none" d="M98.176 86.579a18.506 18.506 0 0 1-18.506 18.506 18.506 18.506 0 0 1-18.506-18.506A18.506 18.506 0 0 1 79.67 68.072 18.506 18.506 0 0 1 98.176 86.58z" display="block" overflow="visible" fill="#000808" fill-opacity=".33" stroke="url(#i)" stroke-width=".691"/><path style="isolation:auto;mix-blend-mode:normal;marker:none" d="M94.54 90.738L76.436 101.19c-4.805-2.774-3.748-2.187-7.518-4.364V75.911c3.61-2.084 3.232-1.887 7.428-4.31l18.236 10.53c0 3.297-.042 4.866-.042 8.607z" display="block" overflow="visible" fill="none" stroke="#fdeef0" stroke-width=".162" stroke-opacity=".157"/><path d="M89.233 86.314l-7.232 4.176-7.232 4.175V77.963L82 82.139z" style="isolation:auto;mix-blend-mode:normal;marker:none" display="block" overflow="visible" fill-opacity=".288" stroke-width=".192" stroke-opacity="0"/><path style="isolation:auto;mix-blend-mode:normal;marker:none" d="M89.233 85.5l-7.232 4.175-7.232 4.176V77.149L82 81.324z" display="block" overflow="visible" fill="url(#j)" stroke-width=".192" stroke-opacity="0"/><path style="isolation:auto;mix-blend-mode:normal;marker:none" d="M74.768 77.148V93.85l7.233-4.175 7.233-4.175-.474-.273-6.374 3.68-7.233 4.175V77.37z" display="block" overflow="visible" fill="#feeaeb" stroke-width=".192" stroke-opacity="0"/><path d="M93.265 90.357l-16.519 9.537c-4.384-2.532-3.42-1.996-6.86-3.982V76.828c3.294-1.902 2.949-1.722 6.777-3.932l16.64 9.607c0 3.009-.038 4.44-.038 7.854z" style="isolation:auto;mix-blend-mode:normal;marker:none" display="block" overflow="visible" fill="none" stroke="#fdeef0" stroke-width=".148" stroke-opacity=".157"/><g transform="scale(.66666) rotate(30 49.934 -91.653)" stroke="url(#linearGradient1010)"><circle r="4.866" cy="46.766" cx="174.236" style="isolation:auto;mix-blend-mode:normal;marker:none" display="block" overflow="visible" fill="#000808" fill-opacity=".136" stroke-width="1.016"/><circle style="isolation:auto;mix-blend-mode:normal;marker:none" cx="174.236" cy="46.766" r="2.913" display="block" overflow="visible" fill="#fff" fill-opacity=".346" stroke-width=".608"/><circle r="1.606" cy="46.766" cx="174.236" style="isolation:auto;mix-blend-mode:normal;marker:none" display="block" overflow="visible" fill="#ab97da" fill-opacity=".963" stroke-width=".335"/><circle style="isolation:auto;mix-blend-mode:normal;marker:none" cx="174.236" cy="55.601" r="2.748" display="block" overflow="visible" fill="#000808" fill-opacity=".136" stroke-width=".574"/><circle r="2" cy="62.577" cx="174.236" style="isolation:auto;mix-blend-mode:normal;marker:none" display="block" overflow="visible" fill="#000808" fill-opacity=".136" stroke-width=".418"/><circle r="2.748" cy="35.814" cx="174.968" style="isolation:auto;mix-blend-mode:normal;marker:none" display="block" overflow="visible" fill="#000808" fill-opacity=".136" stroke-width=".574"/></g></g></svg>