<svg xmlns="http://www.w3.org/2000/svg" xmlns:xlink="http://www.w3.org/1999/xlink" height="24" viewBox="0 0 24 24" width="24"><title>Template icons dark</title><defs><linearGradient id="e"><stop offset="0" stop-color="#aea6b6"/><stop offset="1" stop-color="#e4e4e4"/></linearGradient><linearGradient id="d"><stop offset="0" stop-color="#645665"/><stop offset="1" stop-color="#05070e" stop-opacity=".988"/></linearGradient><linearGradient id="c"><stop offset="0" stop-color="#2d3840"/><stop offset="1" stop-color="#5f5777"/></linearGradient><linearGradient id="b"><stop offset="0" stop-color="#eaeaea"/><stop offset="1" stop-color="silver"/></linearGradient><linearGradient id="a"><stop offset="0" stop-color="#50b4ce"/><stop offset="1" stop-color="#df2fb9" stop-opacity=".974"/></linearGradient><linearGradient xlink:href="#e" id="f" x1="151.033" y1="198.284" x2="151.033" y2="118.162" gradientUnits="userSpaceOnUse" gradientTransform="matrix(.27019 0 0 .27019 -87.23 -87.08)"/><linearGradient xlink:href="#c" id="g" x1="119.039" y1="133.562" x2="178.802" y2="193.325" gradientUnits="userSpaceOnUse" gradientTransform="rotate(-90 -44.243 41.137) scale(.25867)"/><linearGradient xlink:href="#b" id="h" x1="151" y1="147" x2="151" y2="171.95" gradientUnits="userSpaceOnUse" gradientTransform="matrix(.21485 0 0 .21485 -76.817 -76.82)"/></defs><g color="#000" transform="translate(56 56)"><rect style="isolation:auto;mix-blend-mode:normal;marker:none" width="24" height="24" x="-56" y="-56" ry="2.667" display="block" overflow="visible" fill="#000808" fill-opacity=".136" stroke="url(#linearGradient1010)" stroke-width=".339"/><rect ry="2.5" y="-55.1" x="-55.25" height="22.5" width="22.5" style="isolation:auto;mix-blend-mode:normal;marker:none" display="block" overflow="visible" fill="url(#f)" stroke="url(#linearGradient1010)" stroke-width=".318"/><path d="M-40.478-54.03L-32-39.346c-2.25 3.898-1.774 3.04-3.54 6.098h-16.965c-1.69-2.928-1.53-2.621-3.495-6.024l8.54-14.793c2.675 0 3.947.035 6.982.035z" style="isolation:auto;mix-blend-mode:normal;marker:none" display="block" overflow="visible" fill="url(#g)" stroke-width=".132" stroke-opacity="0"/><path style="isolation:auto;mix-blend-mode:normal;marker:none" d="M-36.497-42.916a7.63 7.63 0 0 1-7.63 7.63 7.63 7.63 0 0 1-7.63-7.63 7.63 7.63 0 0 1 7.63-7.63 7.63 7.63 0 0 1 7.63 7.63z" display="block" overflow="visible" fill="#000808" fill-opacity=".476" stroke-width=".285"/><path style="isolation:auto;mix-blend-mode:normal;marker:none" d="M-39.045-42.63l-4.041 2.334-4.041 2.333v-9.333l4.041 2.333z" display="block" overflow="visible" fill="url(#h)" stroke-width=".107" stroke-opacity="0"/></g></svg>