<svg xmlns="http://www.w3.org/2000/svg" xmlns:xlink="http://www.w3.org/1999/xlink" height="128" viewBox="0 0 128 128" width="128"><title>Template icons dark</title><defs><linearGradient id="e"><stop offset="0" stop-color="#aea6b6"/><stop offset="1" stop-color="#e4e4e4"/></linearGradient><linearGradient id="d"><stop offset="0" stop-color="#645665"/><stop offset="1" stop-color="#05070e" stop-opacity=".988"/></linearGradient><linearGradient id="c"><stop offset="0" stop-color="#2d3840"/><stop offset="1" stop-color="#5f5777"/></linearGradient><linearGradient id="b"><stop offset="0" stop-color="#eaeaea"/><stop offset="1" stop-color="silver"/></linearGradient><linearGradient id="a"><stop offset="0" stop-color="#50b4ce"/><stop offset="1" stop-color="#df2fb9" stop-opacity=".974"/></linearGradient><linearGradient xlink:href="#e" id="f" x1="151.033" y1="198.284" x2="151.033" y2="118.162" gradientUnits="userSpaceOnUse" gradientTransform="matrix(1.40922 0 0 1.40848 46.496 46.585)"/><linearGradient xlink:href="#a" id="g" x1="120.752" y1="131.244" x2="191.98" y2="189.032" gradientUnits="userSpaceOnUse" gradientTransform="matrix(0 -1.29326 1.29326 0 65.109 480.124)"/><linearGradient xlink:href="#c" id="h" x1="119.039" y1="133.562" x2="178.802" y2="193.325" gradientUnits="userSpaceOnUse" gradientTransform="rotate(-90 272.554 209.733) scale(1.30757)"/><linearGradient xlink:href="#d" id="i" gradientUnits="userSpaceOnUse" gradientTransform="rotate(-90 286.521 207.69) scale(1.47793)" x1="131.889" y1="152.575" x2="177.103" y2="163.009"/><linearGradient xlink:href="#b" id="j" x1="151" y1="147" x2="151" y2="171.95" gradientUnits="userSpaceOnUse" gradientTransform="matrix(.769 0 0 .769 155.27 160.446)"/></defs><g color="#000" transform="translate(-208 -208)"><rect style="isolation:auto;mix-blend-mode:normal;marker:none" width="119.989" height="119.964" x="211.93" y="211.931" ry="13.329" display="block" overflow="visible" fill="#000808" fill-opacity=".136" stroke="url(#linearGradient1010)" stroke-width="1.693"/><rect ry="13.032" y="213.295" x="213.294" height="117.292" width="117.354" style="isolation:auto;mix-blend-mode:normal;marker:none" display="block" overflow="visible" fill="url(#f)" stroke="url(#linearGradient1010)" stroke-width="1.656"/><rect style="isolation:auto;mix-blend-mode:normal;marker:none" width="21.333" height="2.667" x="261.274" y="215.942" ry="1.333" display="block" overflow="visible" fill="#bbc0c5" fill-opacity=".982" stroke="url(#linearGradient1010)" stroke-width="1.371"/><path d="M290.784 221.58L336 299.898c-12.002 20.787-9.462 16.215-18.878 32.524h-90.48c-9.015-15.615-8.163-13.98-18.642-32.13l45.549-78.894c14.264 0 21.05.184 37.235.184z" style="isolation:auto;mix-blend-mode:normal;marker:none" display="block" overflow="visible" fill="#000808" fill-opacity=".147" stroke-width=".702" stroke-opacity="0"/><path style="isolation:auto;mix-blend-mode:normal;marker:none" d="M290.218 223.474l43.857 75.963c-11.64 20.163-9.177 15.728-18.31 31.547h-87.762c-8.744-15.146-7.917-13.56-18.081-31.166l44.18-76.522c13.835 0 20.418.178 36.116.178z" display="block" overflow="visible" fill="url(#g)" stroke-width=".68" stroke-opacity="0"/><path d="M289.8 224.87l42.857 74.228c-11.375 19.702-8.968 15.369-17.892 30.826h-85.759c-8.544-14.8-7.736-13.25-17.668-30.453l43.171-74.775c13.52 0 19.952.173 35.292.173z" style="isolation:auto;mix-blend-mode:normal;marker:none" display="block" overflow="visible" fill="url(#h)" stroke-width=".665" stroke-opacity="0"/><path style="isolation:auto;mix-blend-mode:normal;marker:none" d="M308.352 284.981a37.012 37.012 0 0 1-37.012 37.013 37.012 37.012 0 0 1-37.012-37.013 37.012 37.012 0 0 1 37.012-37.012 37.012 37.012 0 0 1 37.012 37.012z" display="block" overflow="visible" fill="#000808" fill-opacity=".33" stroke="url(#i)" stroke-width="1.382"/><path style="isolation:auto;mix-blend-mode:normal;marker:none" d="M301.08 293.3l-36.207 20.904c-9.61-5.548-7.497-4.374-15.036-8.727v-41.831c7.219-4.168 6.463-3.774 14.854-8.619l36.474 21.059c0 6.594-.085 9.732-.085 17.214z" display="block" overflow="visible" fill="none" stroke="#fdeef0" stroke-width=".324" stroke-opacity=".157"/><path d="M290.467 284.453l-14.465 8.35-14.465 8.352V267.75l14.465 8.351z" style="isolation:auto;mix-blend-mode:normal;marker:none" display="block" overflow="visible" fill-opacity=".288" stroke-width=".384" stroke-opacity="0"/><path style="isolation:auto;mix-blend-mode:normal;marker:none" d="M290.467 282.824l-14.465 8.351-14.465 8.351v-33.405l14.465 8.352z" display="block" overflow="visible" fill="url(#j)" stroke-width=".384" stroke-opacity="0"/><path style="isolation:auto;mix-blend-mode:normal;marker:none" d="M261.537 266.121v33.405l14.465-8.351 14.465-8.35-.947-.548-12.749 7.36-14.465 8.35v-31.421z" display="block" overflow="visible" fill="#feeaeb" stroke-width=".384" stroke-opacity="0"/><path d="M298.53 292.538l-33.038 19.074c-8.768-5.063-6.84-3.992-13.72-7.964V265.48c6.587-3.803 5.898-3.444 13.555-7.864l33.28 19.214c0 6.017-.078 8.88-.078 15.708z" style="isolation:auto;mix-blend-mode:normal;marker:none" display="block" overflow="visible" fill="none" stroke="#fdeef0" stroke-width=".296" stroke-opacity=".157"/><g transform="rotate(30 -86.088 142.704) scale(1.33333)" stroke="url(#linearGradient1010)"><circle r="4.866" cy="46.766" cx="174.236" style="isolation:auto;mix-blend-mode:normal;marker:none" display="block" overflow="visible" fill="#000808" fill-opacity=".136" stroke-width="1.016"/><circle style="isolation:auto;mix-blend-mode:normal;marker:none" cx="174.236" cy="46.766" r="2.913" display="block" overflow="visible" fill="#fff" fill-opacity=".346" stroke-width=".608"/><circle r="1.606" cy="46.766" cx="174.236" style="isolation:auto;mix-blend-mode:normal;marker:none" display="block" overflow="visible" fill="#ab97da" fill-opacity=".963" stroke-width=".335"/><circle style="isolation:auto;mix-blend-mode:normal;marker:none" cx="174.236" cy="55.601" r="2.748" display="block" overflow="visible" fill="#000808" fill-opacity=".136" stroke-width=".574"/><circle r="2" cy="62.577" cx="174.236" style="isolation:auto;mix-blend-mode:normal;marker:none" display="block" overflow="visible" fill="#000808" fill-opacity=".136" stroke-width=".418"/><circle r="2.748" cy="35.814" cx="174.968" style="isolation:auto;mix-blend-mode:normal;marker:none" display="block" overflow="visible" fill="#000808" fill-opacity=".136" stroke-width=".574"/></g></g></svg>