<svg xmlns="http://www.w3.org/2000/svg" xmlns:xlink="http://www.w3.org/1999/xlink" height="16" viewBox="0 0 16 16" width="16"><title>Template icons dark</title><defs><linearGradient id="e"><stop offset="0" stop-color="#aea6b6"/><stop offset="1" stop-color="#e4e4e4"/></linearGradient><linearGradient id="d"><stop offset="0" stop-color="#645665"/><stop offset="1" stop-color="#05070e" stop-opacity=".988"/></linearGradient><linearGradient id="c"><stop offset="0" stop-color="#2d3840"/><stop offset="1" stop-color="#5f5777"/></linearGradient><linearGradient id="b"><stop offset="0" stop-color="#eaeaea"/><stop offset="1" stop-color="silver"/></linearGradient><linearGradient id="a"><stop offset="0" stop-color="#50b4ce"/><stop offset="1" stop-color="#df2fb9" stop-opacity=".974"/></linearGradient><linearGradient xlink:href="#e" id="f" x1="151.033" y1="198.284" x2="151.033" y2="118.162" gradientUnits="userSpaceOnUse" gradientTransform="matrix(.18012 0 0 .18012 -92.82 -92.72)"/><linearGradient xlink:href="#c" id="g" x1="119.039" y1="133.562" x2="178.802" y2="193.325" gradientUnits="userSpaceOnUse" gradientTransform="matrix(0 -.17245 .17245 0 -91.587 -36.738)"/><linearGradient xlink:href="#b" id="h" x1="151" y1="147" x2="151" y2="171.95" gradientUnits="userSpaceOnUse" gradientTransform="translate(-90.85 -91.13) scale(.17622)"/></defs><g color="#000" transform="translate(72 72)"><rect style="isolation:auto;mix-blend-mode:normal;marker:none" width="16" height="16" x="-72" y="-72" ry="1.778" display="block" overflow="visible" fill="#000808" fill-opacity=".136" stroke="url(#linearGradient1010)" stroke-width=".226"/><rect ry="1.667" y="-71.4" x="-71.5" height="15" width="15" style="isolation:auto;mix-blend-mode:normal;marker:none" display="block" overflow="visible" fill="url(#f)" stroke="url(#linearGradient1010)" stroke-width=".212"/><path d="M-61.652-70.687l5.652 9.79c-1.5 2.598-1.183 2.027-2.36 4.065h-11.31c-1.127-1.952-1.02-1.747-2.33-4.016l5.694-9.862c1.783 0 2.631.023 4.654.023z" style="isolation:auto;mix-blend-mode:normal;marker:none" display="block" overflow="visible" fill="url(#g)" stroke-width=".088" stroke-opacity="0"/><path style="isolation:auto;mix-blend-mode:normal;marker:none" d="M-58.362-63.277a5.723 5.723 0 0 1-5.723 5.722 5.723 5.723 0 0 1-5.723-5.722A5.723 5.723 0 0 1-64.085-69a5.723 5.723 0 0 1 5.723 5.723z" overflow="visible" fill="#000808" fill-opacity=".476" stroke-width=".214"/><path style="isolation:auto;mix-blend-mode:normal;marker:none" d="M-59.87-63.086l-3.314 1.913-3.315 1.914V-66.914L-63.184-65z" display="block" overflow="visible" fill="url(#h)" stroke-width=".088" stroke-opacity="0"/></g></svg>