<svg xmlns="http://www.w3.org/2000/svg" xmlns:xlink="http://www.w3.org/1999/xlink" height="96" viewBox="0 0 96 96" width="96"><title>Template icons dark</title><defs><linearGradient id="e"><stop offset="0" stop-color="#aea6b6"/><stop offset="1" stop-color="#e4e4e4"/></linearGradient><linearGradient id="d"><stop offset="0" stop-color="#645665"/><stop offset="1" stop-color="#05070e" stop-opacity=".988"/></linearGradient><linearGradient id="c"><stop offset="0" stop-color="#2d3840"/><stop offset="1" stop-color="#5f5777"/></linearGradient><linearGradient id="b"><stop offset="0" stop-color="#eaeaea"/><stop offset="1" stop-color="silver"/></linearGradient><linearGradient id="a"><stop offset="0" stop-color="#50b4ce"/><stop offset="1" stop-color="#df2fb9" stop-opacity=".974"/></linearGradient><linearGradient xlink:href="#a" id="g" x1="120.752" y1="131.244" x2="191.98" y2="189.032" gradientUnits="userSpaceOnUse" gradientTransform="rotate(-90 160.507 155.63) scale(.96995)"/><linearGradient xlink:href="#b" id="j" x1="151" y1="147" x2="151" y2="171.95" gradientUnits="userSpaceOnUse" gradientTransform="matrix(.57675 0 0 .57675 72.497 76.378)"/><linearGradient xlink:href="#c" id="h" x1="119.039" y1="133.562" x2="178.802" y2="193.325" gradientUnits="userSpaceOnUse" gradientTransform="rotate(-90 160.46 157.3) scale(.98068)"/><linearGradient xlink:href="#d" id="i" gradientUnits="userSpaceOnUse" gradientTransform="rotate(-90 170.935 155.767) scale(1.10845)" x1="131.889" y1="152.575" x2="177.103" y2="163.009"/><linearGradient xlink:href="#e" id="f" x1="151.033" y1="198.284" x2="151.033" y2="118.162" gradientUnits="userSpaceOnUse" gradientTransform="matrix(1.05692 0 0 1.05636 -9.084 -9.018)"/></defs><g color="#000" transform="translate(-112 -112)"><rect style="isolation:auto;mix-blend-mode:normal;marker:none" width="89.992" height="89.973" x="114.992" y="114.992" ry="9.997" display="block" overflow="visible" fill="#000808" fill-opacity=".136" stroke="url(#linearGradient1010)" stroke-width="1.27"/><rect ry="9.774" y="116.015" x="116.015" height="87.969" width="88.016" style="isolation:auto;mix-blend-mode:normal;marker:none" display="block" overflow="visible" fill="url(#f)" stroke="url(#linearGradient1010)" stroke-width="1.242"/><rect style="isolation:auto;mix-blend-mode:normal;marker:none" width="16" height="2" x="152" y="118" ry="1" display="block" overflow="visible" fill="#bbc0c5" fill-opacity=".982" stroke="url(#linearGradient1010)" stroke-width="1.028"/><path d="M174.133 122.23l33.912 58.737c-9.001 15.59-7.096 12.161-14.158 24.393h-67.861c-6.761-11.712-6.122-10.486-13.981-24.098l34.161-59.17c10.698 0 15.789.137 27.927.137z" style="isolation:auto;mix-blend-mode:normal;marker:none" display="block" overflow="visible" fill="#000808" fill-opacity=".147" stroke-width=".526" stroke-opacity="0"/><path style="isolation:auto;mix-blend-mode:normal;marker:none" d="M173.708 123.65l32.893 56.972c-8.73 15.122-6.883 11.796-13.732 23.66h-65.822c-6.558-11.36-5.938-10.17-13.561-23.374l33.135-57.392c10.376 0 15.314.133 27.087.133z" display="block" overflow="visible" fill="url(#g)" stroke-width=".51" stroke-opacity="0"/><path d="M173.395 124.696l32.142 55.672c-8.53 14.776-6.725 11.526-13.419 23.12H127.8c-6.409-11.1-5.803-9.939-13.252-22.84l32.379-56.082c10.14 0 14.964.13 26.468.13z" style="isolation:auto;mix-blend-mode:normal;marker:none" display="block" overflow="visible" fill="url(#h)" stroke-width=".499" stroke-opacity="0"/><path style="isolation:auto;mix-blend-mode:normal;marker:none" d="M187.309 169.78a27.76 27.76 0 0 1-27.76 27.76 27.76 27.76 0 0 1-27.758-27.76 27.76 27.76 0 0 1 27.759-27.76 27.76 27.76 0 0 1 27.759 27.76z" display="block" overflow="visible" fill="#000808" fill-opacity=".33" stroke="url(#i)" stroke-width="1.036"/><path style="isolation:auto;mix-blend-mode:normal;marker:none" d="M181.855 176.019l-27.156 15.678c-7.207-4.161-5.622-3.28-11.277-6.545v-31.374c5.414-3.126 4.848-2.83 11.141-6.463l27.355 15.793c0 4.946-.063 7.3-.063 12.911z" display="block" overflow="visible" fill="none" stroke="#fdeef0" stroke-width=".243" stroke-opacity=".157"/><path d="M173.895 169.383l-10.849 6.264-10.848 6.263V156.857l10.848 6.263z" style="isolation:auto;mix-blend-mode:normal;marker:none" display="block" overflow="visible" fill-opacity=".288" stroke-width=".288" stroke-opacity="0"/><path style="isolation:auto;mix-blend-mode:normal;marker:none" d="M173.895 168.162l-10.849 6.263-10.848 6.264v-25.054l10.848 6.263z" display="block" overflow="visible" fill="url(#j)" stroke-width=".288" stroke-opacity="0"/><path style="isolation:auto;mix-blend-mode:normal;marker:none" d="M152.197 155.635V180.688l10.85-6.263 10.848-6.263-.71-.41-9.562 5.52-10.849 6.263v-23.566z" display="block" overflow="visible" fill="#feeaeb" stroke-width=".288" stroke-opacity="0"/><path d="M179.942 175.447l-24.778 14.306c-6.577-3.797-5.13-2.994-10.29-5.973v-28.626c4.94-2.852 4.423-2.583 10.166-5.898l24.96 14.41c0 4.514-.058 6.66-.058 11.781z" style="isolation:auto;mix-blend-mode:normal;marker:none" display="block" overflow="visible" fill="none" stroke="#fdeef0" stroke-width=".222" stroke-opacity=".157"/><g transform="rotate(30 -4.52 3.027)" stroke="url(#linearGradient1010)"><circle r="4.866" cy="46.766" cx="174.236" style="isolation:auto;mix-blend-mode:normal;marker:none" display="block" overflow="visible" fill="#000808" fill-opacity=".136" stroke-width="1.016"/><circle style="isolation:auto;mix-blend-mode:normal;marker:none" cx="174.236" cy="46.766" r="2.913" display="block" overflow="visible" fill="#fff" fill-opacity=".346" stroke-width=".608"/><circle r="1.606" cy="46.766" cx="174.236" style="isolation:auto;mix-blend-mode:normal;marker:none" display="block" overflow="visible" fill="#ab97da" fill-opacity=".963" stroke-width=".335"/><circle style="isolation:auto;mix-blend-mode:normal;marker:none" cx="174.236" cy="55.601" r="2.748" display="block" overflow="visible" fill="#000808" fill-opacity=".136" stroke-width=".574"/><circle r="2" cy="62.577" cx="174.236" style="isolation:auto;mix-blend-mode:normal;marker:none" display="block" overflow="visible" fill="#000808" fill-opacity=".136" stroke-width=".418"/><circle r="2.748" cy="35.814" cx="174.968" style="isolation:auto;mix-blend-mode:normal;marker:none" display="block" overflow="visible" fill="#000808" fill-opacity=".136" stroke-width=".574"/></g></g></svg>